<svg width="1200" height="800" viewBox="0 0 1200 800" fill="none" xmlns="http://www.w3.org/2000/svg">
  <rect width="1200" height="800" fill="#F3F3F1"/>
  <rect x="210" y="88" width="780" height="624" rx="10" fill="#FCFCFB" stroke="#0A0A0A" stroke-opacity="0.1"/>
  <circle cx="330" cy="214" r="46" fill="#0A0A0A" fill-opacity="0.08"/>
  <rect x="396" y="182" width="320" height="16" rx="4" fill="#0A0A0A" fill-opacity="0.1"/>
  <rect x="396" y="210" width="220" height="12" rx="3" fill="#0A0A0A" fill-opacity="0.08"/>
  <rect x="274" y="292" width="652" height="1" fill="#0A0A0A" fill-opacity="0.08"/>
  <rect x="274" y="332" width="260" height="10" rx="3" fill="#0A0A0A" fill-opacity="0.08"/>
  <rect x="274" y="354" width="430" height="14" rx="4" fill="#0A0A0A" fill-opacity="0.06"/>
  <rect x="274" y="420" width="652" height="86" rx="8" fill="#0A0A0A" fill-opacity="0.04" stroke="#0A0A0A" stroke-opacity="0.1"/>
  <rect x="274" y="534" width="320" height="16" rx="4" fill="#0A0A0A" fill-opacity="0.1"/>
  <rect x="274" y="566" width="200" height="34" rx="6" fill="#0A0A0A"/>
  <rect x="490" y="566" width="160" height="34" rx="6" fill="#0A0A0A" fill-opacity="0.08"/>
  <rect x="846" y="332" width="80" height="28" rx="6" fill="#0A0A0A"/>
  <rect x="846" y="370" width="80" height="28" rx="6" fill="#0A0A0A" fill-opacity="0.08"/>
</svg>
