<svg width="1200" height="800" viewBox="0 0 1200 800" fill="none" xmlns="http://www.w3.org/2000/svg">
  <rect width="1200" height="800" fill="#F3F3F1"/>
  <rect x="100" y="148" width="300" height="504" rx="10" fill="#FCFCFB" stroke="#0A0A0A" stroke-opacity="0.1"/>
  <rect x="450" y="148" width="300" height="504" rx="10" fill="#FCFCFB" stroke="#0A0A0A" stroke-opacity="0.1"/>
  <rect x="800" y="148" width="300" height="504" rx="10" fill="#FCFCFB" stroke="#0A0A0A" stroke-opacity="0.1"/>
  <rect x="136" y="210" width="228" height="14" rx="3" fill="#0A0A0A" fill-opacity="0.08"/>
  <rect x="136" y="238" width="190" height="10" rx="3" fill="#0A0A0A" fill-opacity="0.08"/>
  <rect x="136" y="286" width="228" height="120" rx="6" fill="#0A0A0A" fill-opacity="0.04"/>
  <rect x="486" y="210" width="228" height="14" rx="3" fill="#0A0A0A" fill-opacity="0.08"/>
  <rect x="486" y="238" width="200" height="10" rx="3" fill="#0A0A0A" fill-opacity="0.08"/>
  <rect x="486" y="286" width="228" height="120" rx="6" fill="#0A0A0A" fill-opacity="0.04"/>
  <rect x="836" y="210" width="228" height="14" rx="3" fill="#0A0A0A" fill-opacity="0.08"/>
  <rect x="836" y="238" width="150" height="10" rx="3" fill="#0A0A0A" fill-opacity="0.08"/>
  <rect x="836" y="286" width="228" height="120" rx="6" fill="#0A0A0A" fill-opacity="0.04"/>
  <path d="M412 396H438" stroke="#0A0A0A" stroke-width="2"/>
  <path d="M762 396H788" stroke="#0A0A0A" stroke-width="2"/>
  <path d="M430 384L444 396L430 408" stroke="#0A0A0A" stroke-width="2"/>
  <path d="M780 384L794 396L780 408" stroke="#0A0A0A" stroke-width="2"/>
  <rect x="136" y="462" width="228" height="140" rx="6" fill="#0A0A0A" fill-opacity="0.04"/>
  <rect x="486" y="462" width="228" height="140" rx="6" fill="#0A0A0A" fill-opacity="0.04"/>
  <rect x="836" y="462" width="228" height="140" rx="6" fill="#0A0A0A" fill-opacity="0.04"/>
</svg>
